<?xml version="1.0" standalone="no"?>
<!DOCTYPE svg PUBLIC "-//W3C//DTD SVG 20010904//EN"
 "http://www.w3.org/TR/2001/REC-SVG-20010904/DTD/svg10.dtd">
<svg version="1.0" xmlns="http://www.w3.org/2000/svg"
 width="270.000000pt" height="270.000000pt" viewBox="0 0 270.000000 270.000000"
 preserveAspectRatio="xMidYMid meet">
<metadata>
Created by potrace 1.14, written by Peter Selinger 2001-2017
</metadata>
<g transform="translate(0.000000,270.000000) scale(0.100000,-0.100000)"
fill="#000000" stroke="none">
<path d="M901 2615 c-39 -23 -46 -24 -53 -10 -5 8 -13 15 -18 15 -10 0 -60
-69 -60 -82 0 -18 28 -6 40 17 10 18 16 22 22 13 6 -10 19 -7 56 14 l50 28 -6
-46 c-6 -55 6 -66 59 -58 49 8 82 -10 77 -41 -4 -16 -1 -22 9 -18 7 3 13 14
13 24 0 68 305 49 500 -31 131 -53 231 -142 303 -269 l24 -42 -18 -112 c-26
-159 -28 -164 -64 -191 -36 -27 -46 -57 -65 -191 -11 -80 -80 -290 -101 -309
-9 -8 -10 -3 -6 22 10 51 -8 37 -30 -23 -20 -53 -15 -76 7 -35 6 11 15 20 19
20 5 0 -8 -47 -28 -104 -27 -78 -41 -106 -57 -112 -12 -5 -57 -46 -100 -92
-71 -76 -77 -87 -82 -133 -2 -27 -8 -52 -13 -55 -13 -7 -39 50 -33 73 9 32 -9
35 -106 19 -49 -9 -143 -16 -208 -16 -99 0 -122 3 -149 20 -18 11 -33 27 -33
35 0 8 -9 23 -19 32 -18 15 -19 19 -5 51 18 45 18 49 -6 27 -21 -19 -59 -23
-100 -10 l-25 8 25 -27 c14 -16 33 -32 43 -38 23 -12 37 -1 17 12 -13 8 -13
10 1 10 11 0 23 -18 35 -52 13 -37 29 -59 54 -76 33 -22 40 -23 202 -20 109 2
167 -1 165 -7 -2 -5 -12 -12 -23 -14 -28 -5 -105 -64 -132 -100 -12 -17 -31
-31 -42 -31 -24 0 -40 29 -29 55 10 26 11 65 1 65 -4 0 -18 -34 -30 -75 -18
-60 -27 -77 -50 -89 -15 -8 -45 -37 -67 -65 -22 -27 -44 -50 -49 -51 -4 0 -5
20 -2 44 7 44 -5 117 -29 171 -59 138 -63 143 -111 131 -14 -4 -48 -28 -76
-54 -47 -43 -51 -45 -63 -28 -8 11 -11 31 -8 52 4 22 2 34 -6 34 -6 0 -11 -9
-11 -20 0 -24 -13 -26 -30 -4 -21 24 -78 14 -98 -18 -15 -26 -15 -28 19 -65
19 -21 41 -53 48 -71 13 -30 11 -39 -15 -104 -43 -107 -108 -211 -178 -286
-74 -77 -175 -142 -223 -142 -34 0 -44 -14 -18 -24 23 -8 103 21 161 60 109
73 206 197 267 344 34 82 34 82 41 47 4 -19 20 -52 37 -73 17 -22 45 -58 61
-82 l30 -43 -31 -64 c-16 -36 -51 -97 -77 -137 -26 -40 -49 -89 -51 -110 -7
-48 5 -108 20 -108 10 0 12 17 9 63 -3 59 -2 65 38 126 66 102 110 195 110
234 0 26 -12 51 -45 96 -25 34 -49 61 -55 61 -5 0 -21 39 -36 88 -17 57 -38
101 -61 129 -19 24 -31 47 -28 53 14 23 49 7 95 -42 54 -59 41 -60 128 15 23
20 49 37 57 37 9 0 23 -17 31 -37 9 -21 25 -57 36 -81 24 -53 26 -109 10 -277
-29 -301 -38 -351 -71 -410 -27 -47 -29 -55 -14 -55 19 0 55 46 71 90 5 14 15
81 22 150 13 136 25 213 38 236 33 59 113 146 155 168 27 14 51 26 54 26 3 0
-15 -24 -39 -52 -65 -77 -108 -139 -108 -156 0 -8 19 -33 42 -54 l43 -40 -31
-26 c-17 -15 -43 -38 -59 -51 -27 -23 -28 -23 -21 -110 9 -105 24 -181 37
-181 6 0 8 18 5 43 -3 23 -8 67 -11 97 -3 30 -8 69 -11 86 -5 30 -2 35 56 74
34 23 64 49 67 58 5 11 -9 29 -42 58 -60 53 -63 46 79 216 97 118 177 190 193
175 3 -4 -2 -9 -11 -13 -27 -10 -46 -57 -71 -177 -53 -252 -116 -513 -129
-542 -25 -54 -29 -75 -13 -75 24 0 104 295 174 648 10 45 20 82 24 82 4 0 11
-21 14 -47 8 -60 17 -78 41 -78 20 -1 55 14 65 28 3 5 21 4 40 0 29 -8 34 -14
37 -42 5 -45 -21 -81 -57 -81 -32 0 -66 26 -74 55 -3 13 -5 9 -6 -12 -1 -21 6
-40 19 -53 25 -25 25 -31 -5 -121 -23 -66 -95 -347 -95 -370 0 -5 57 -9 127
-9 l126 0 -7 138 c-3 75 -12 184 -20 242 -14 100 -13 107 5 136 10 17 19 41
19 54 0 17 4 21 19 17 26 -7 42 14 75 98 16 39 32 79 36 90 5 12 9 -28 9 -103
1 -67 6 -166 12 -218 18 -164 111 -454 146 -454 10 0 13 5 8 17 -69 173 -110
335 -124 493 -12 138 -13 519 -1 500 6 -8 21 -53 36 -100 14 -47 50 -152 80
-234 l54 -148 -35 -39 c-42 -47 -44 -66 -7 -81 15 -7 28 -13 30 -14 2 -1 -4
-36 -12 -78 -22 -106 -20 -316 3 -316 3 0 6 55 7 123 0 77 7 147 17 190 22 87
22 107 0 107 -44 1 -48 17 -14 56 27 31 32 43 28 70 -5 32 -131 391 -163 464
-16 38 -10 60 119 418 l33 92 16 -32 c9 -18 36 -61 62 -95 41 -56 50 -63 80
-63 32 0 36 4 52 46 l17 45 14 -32 c12 -30 8 -46 -66 -278 -92 -283 -125 -404
-118 -423 2 -7 13 16 23 50 22 78 28 66 38 -68 4 -52 18 -169 31 -260 13 -91
27 -196 31 -235 4 -38 9 -73 10 -77 1 -5 2 -28 3 -53 1 -35 5 -45 17 -45 15 0
16 12 11 107 -4 60 -18 182 -32 273 -14 91 -34 240 -45 332 l-20 166 56 158
c30 87 64 194 76 238 11 43 35 102 53 131 30 46 34 63 40 146 4 52 8 95 9 96
1 1 21 -42 44 -96 24 -55 69 -141 100 -192 102 -168 337 -377 405 -362 27 7
21 31 -7 26 -36 -7 -99 38 -211 151 -146 147 -227 279 -330 540 l-47 118 12
81 c18 127 55 241 97 300 46 64 48 105 9 222 -38 112 -50 128 -89 120 -18 -4
-51 -17 -74 -30 -40 -22 -43 -22 -48 -5 -11 34 -84 100 -110 100 -48 0 -47
-32 4 -180 37 -104 47 -145 44 -180 -6 -71 -12 -79 -29 -43 -27 54 -107 145
-164 184 -108 75 -239 117 -429 139 -64 7 -104 7 -142 -2 -30 -6 -67 -11 -84
-10 -16 0 -52 1 -79 2 l-48 1 5 32 c3 18 7 41 9 52 5 29 -21 29 -71 0z m1021
-52 c39 -43 61 -81 54 -98 -7 -19 35 -104 52 -105 6 0 12 -11 12 -25 0 -14 4
-33 9 -43 5 -9 14 -30 20 -46 12 -29 26 -31 74 -11 22 9 24 -21 2 -45 -26 -29
-62 -178 -90 -375 -20 -145 -35 -185 -68 -185 -29 0 -72 41 -99 93 l-19 39 25
106 c39 162 68 360 63 422 -3 30 -23 106 -46 169 -22 62 -41 117 -41 122 0 18
27 8 52 -18z m218 -46 c0 -2 16 -48 35 -103 19 -55 32 -109 29 -120 -7 -25
-103 -52 -116 -31 -4 6 -5 19 -2 29 2 9 0 19 -6 23 -5 3 -10 17 -10 30 0 14
-9 29 -20 35 -11 6 -20 19 -20 29 0 11 -7 21 -15 25 -32 12 -15 41 38 63 46
20 87 29 87 20z m-267 -836 c14 -22 41 -51 60 -65 59 -45 91 -33 131 49 l25
50 0 -116 c1 -105 -1 -121 -23 -158 l-23 -42 -13 46 c-17 62 -37 56 -64 -19
-11 -33 -26 -61 -33 -63 -16 -6 -97 105 -119 163 -16 42 -16 57 -6 139 15 117
24 144 33 93 3 -20 18 -55 32 -77z m-307 -698 c-4 -65 -14 -112 -39 -183 -29
-80 -64 -163 -74 -179 -5 -7 -34 23 -48 50 -10 19 -12 36 -5 59 5 18 14 66 20
107 10 73 12 77 75 145 36 39 65 74 65 79 0 5 3 9 6 9 3 0 3 -39 0 -87z m-228
-172 c40 -85 34 -105 -37 -150 -28 -17 -53 -31 -56 -31 -3 0 -5 10 -5 21 0 12
-5 39 -11 59 -10 34 -8 44 16 96 25 54 40 73 56 74 3 0 20 -31 37 -69z"/>
<path d="M740 2428 c0 -16 -14 -32 -48 -53 -74 -46 -182 -163 -239 -260 -103
-173 -144 -317 -148 -521 -2 -106 -7 -140 -23 -177 -24 -55 -67 -81 -115 -72
l-32 6 39 -37 c36 -34 41 -36 92 -32 l54 5 5 -36 c19 -119 30 -164 61 -231 39
-83 68 -120 96 -120 15 0 12 6 -15 34 -46 46 -96 170 -115 284 -15 93 -16 94
-41 87 -34 -8 -80 -6 -98 4 -11 6 -8 11 16 21 72 29 101 103 101 255 0 270
137 571 335 738 l69 58 13 -25 c16 -31 66 -46 110 -33 17 5 39 7 48 4 13 -6
14 -10 4 -29 -7 -13 -18 -27 -25 -31 -18 -10 -18 -27 0 -27 8 0 30 18 49 40
19 22 40 40 48 40 24 0 80 63 70 78 -6 11 -13 7 -29 -13 -15 -18 -27 -25 -40
-21 -11 4 -24 0 -32 -9 -9 -11 -17 -12 -31 -4 -11 5 -40 7 -69 3 -62 -8 -80 4
-80 57 0 28 -4 39 -15 39 -9 0 -15 -9 -15 -22z"/>
<path d="M1244 1960 c4 -19 20 -126 36 -238 34 -229 39 -254 51 -247 4 3 6 11
4 18 -2 7 -6 40 -10 75 l-6 62 28 0 c21 0 41 -13 73 -46 28 -29 40 -48 33 -51
-18 -7 -133 -152 -133 -167 0 -32 25 -37 121 -25 105 14 119 20 119 56 0 24
-2 25 -65 21 -36 -1 -65 -1 -65 1 0 2 13 18 29 36 16 18 30 38 33 45 3 9 14 9
47 -1 l43 -13 -4 -103 c-2 -70 0 -99 7 -92 17 17 18 216 1 298 -15 73 -82 231
-97 231 -4 0 7 -33 26 -72 34 -76 49 -123 59 -196 6 -42 6 -43 -16 -37 -104
31 -256 238 -284 388 -8 39 -19 75 -25 81 -9 8 -10 2 -5 -24z m90 -267 c16
-32 16 -33 -4 -33 -16 0 -20 7 -20 37 0 41 1 41 24 -4z m214 -311 c2 -7 -3
-12 -12 -12 -9 0 -16 7 -16 16 0 17 22 14 28 -4z"/>
<path d="M705 1849 c8 -93 9 -649 1 -656 -2 -2 -24 19 -49 47 -33 36 -56 77
-79 136 -17 47 -35 79 -39 73 -16 -27 47 -171 102 -234 59 -67 151 -106 185
-79 18 15 18 15 -4 11 -13 -3 -37 -1 -53 5 l-29 10 0 92 c0 86 2 96 29 132 15
21 38 47 49 58 21 18 22 18 76 -41 63 -68 133 -110 162 -99 16 6 13 10 -20 21
-73 25 -188 161 -247 291 -38 84 -69 202 -69 265 0 26 -5 51 -11 55 -9 5 -10
-18 -4 -87z m117 -356 c7 -9 7 -13 -2 -13 -7 0 -28 -17 -48 -37 l-35 -37 6 89
c4 50 6 99 7 110 0 11 13 -6 31 -40 17 -33 35 -66 41 -72z"/>
<path d="M1230 1499 c1 -23 44 -68 62 -65 24 3 35 16 14 16 -10 0 -31 14 -47
31 -16 17 -29 25 -29 18z"/>
<path d="M1020 1418 c0 -23 48 -78 68 -78 15 0 15 2 2 10 -10 6 13 9 70 7 53
-1 92 3 105 10 17 10 10 12 -40 7 -79 -8 -170 11 -190 39 -12 17 -15 18 -15 5z"/>
<path d="M106 1249 c-8 -44 -8 -59 4 -59 5 0 24 -10 43 -23 l34 -23 -36 -40
-36 -40 -28 33 -29 33 24 22 c13 13 19 20 14 16 -6 -5 -18 -8 -27 -8 -9 0 -27
-8 -40 -19 l-23 -18 32 -17 c35 -18 57 -53 67 -109 9 -48 25 -48 25 1 0 45 26
91 74 127 43 32 45 45 10 45 -15 0 -38 12 -55 29 -17 17 -29 40 -29 55 0 36
-16 32 -24 -5z"/>
<path d="M817 1240 c-93 -16 -75 -35 34 -35 l78 0 -45 -46 c-36 -36 -45 -51
-39 -68 3 -11 10 -21 15 -21 13 0 158 130 164 147 4 8 4 19 0 24 -6 11 -139
10 -207 -1z m73 -129 c0 -6 -4 -13 -10 -16 -5 -3 -10 1 -10 9 0 9 5 16 10 16
6 0 10 -4 10 -9z"/>
<path d="M1206 1152 c-58 -32 -90 -70 -80 -96 7 -19 53 -41 63 -30 3 4 1 9 -5
11 -6 2 -20 10 -30 17 -18 14 -18 15 -1 34 26 28 116 75 132 68 11 -4 15 -22
15 -61 0 -35 4 -54 10 -50 14 9 12 109 -2 123 -19 19 -49 14 -102 -16z"/>
<path d="M2030 1125 c0 -85 90 -237 175 -295 67 -46 117 -60 248 -70 126 -10
205 -35 232 -74 15 -20 15 -20 15 5 0 30 -47 60 -122 79 l-47 12 22 19 c29 24
20 24 -39 -2 -99 -44 -240 -4 -341 96 -59 59 -111 155 -120 220 -7 53 -23 60
-23 10z"/>
<path d="M520 998 c0 -24 57 -65 105 -76 43 -9 105 2 105 19 0 7 -7 8 -17 3
-46 -21 -158 11 -182 53 -10 17 -10 17 -11 1z"/>
<path d="M504 975 c4 -16 12 -34 17 -39 5 -6 5 4 -1 24 -12 42 -25 55 -16 15z"/>
<path d="M2681 957 c-24 -30 -97 -50 -152 -43 -59 8 -58 -2 4 -38 50 -29 97
-43 97 -28 0 6 -14 14 -32 17 l-32 8 51 18 c53 20 88 50 81 70 -2 7 -8 6 -17
-4z"/>
<path d="M2046 542 c-8 -13 44 -82 90 -121 56 -45 133 -71 245 -81 81 -7 108
-14 158 -41 34 -17 77 -49 96 -71 30 -33 35 -35 35 -17 0 37 -87 103 -175 133
-17 6 -12 11 29 32 62 31 102 59 144 98 46 43 41 67 -5 25 -103 -93 -213 -135
-325 -126 -108 9 -200 59 -258 138 -16 22 -31 36 -34 31z"/>
<path d="M2020 270 c0 -5 18 -29 41 -52 74 -78 104 -129 103 -176 -1 -23 3
-42 8 -42 4 0 8 8 8 17 0 15 2 14 14 -3 41 -56 15 48 -28 111 -57 84 -146 173
-146 145z"/>
<path d="M2396 242 c11 -9 30 -24 42 -32 30 -20 51 -82 52 -152 0 -32 5 -58
10 -58 13 0 13 94 1 138 l-10 32 29 -20 c35 -25 65 -65 85 -114 17 -40 41 -50
29 -13 -24 77 -76 137 -179 202 -56 37 -96 48 -59 17z"/>
<path d="M0 107 c0 -19 43 -37 103 -44 29 -4 46 -10 43 -17 -16 -40 -17 -46
-9 -46 11 0 63 77 63 92 0 6 -6 5 -15 -2 -20 -16 -111 -8 -154 14 -25 13 -31
14 -31 3z"/>
<path d="M406 63 c-2 -10 -7 -28 -11 -40 -5 -17 -2 -23 9 -23 9 0 13 6 10 13
-3 8 0 26 5 40 6 15 7 27 1 27 -5 0 -11 -8 -14 -17z"/>
</g>
</svg>
